<?xml version="1.0" standalone="no"?>
<!DOCTYPE svg PUBLIC "-//W3C//DTD SVG 20010904//EN"
 "http://www.w3.org/TR/2001/REC-SVG-20010904/DTD/svg10.dtd">
<svg version="1.0" xmlns="http://www.w3.org/2000/svg"
 width="853.000000pt" height="1280.000000pt" viewBox="0 0 853.000000 1280.000000"
 preserveAspectRatio="xMidYMid meet">
<g transform="translate(0.000000,1280.000000) scale(0.100000,-0.100000)"
fill="#000000" stroke="none">
<path d="M6295 12788 c-264 -51 -424 -124 -596 -271 -238 -203 -371 -480 -514
-1072 -135 -559 -234 -1128 -445 -2575 -107 -730 -149 -993 -160 -1004 -6 -6
-13 -6 -19 -1 -11 13 -283 573 -661 1360 -788 1641 -1080 2218 -1366 2695
-239 399 -360 530 -564 610 -161 64 -301 90 -487 90 -344 0 -653 -120 -893
-347 -196 -186 -302 -394 -330 -653 -61 -557 435 -1649 1432 -3152 436 -657
966 -1381 1345 -1836 93 -111 114 -142 98 -142 -3 0 -60 38 -128 83 -171 117
-273 177 -449 262 -475 230 -897 266 -1223 103 -254 -128 -474 -420 -567 -755
-19 -66 -22 -104 -22 -253 0 -148 4 -187 22 -252 44 -161 129 -325 239 -463
29 -36 53 -71 53 -78 0 -7 -37 -25 -84 -40 -436 -142 -737 -474 -875 -965 -49
-173 -96 -485 -96 -632 1 -81 27 -281 61 -453 181 -928 804 -1757 1772 -2358
252 -157 812 -387 1252 -514 443 -128 982 -198 1275 -166 61 7 153 17 205 22
530 55 1134 254 1785 588 345 177 597 336 839 529 151 120 454 422 569 566
391 492 639 1090 721 1736 41 323 52 555 37 770 -6 91 -16 246 -21 345 -70
1215 -337 2121 -782 2650 -218 259 -349 336 -768 446 -85 23 -161 47 -169 54
-11 11 -5 55 44 282 298 1402 549 2449 696 2901 141 437 163 731 78 1042 -81
295 -313 566 -616 719 -215 108 -510 163 -688 129z m337 -268 c163 -36 313
-109 440 -214 230 -191 338 -451 325 -786 -6 -162 -32 -289 -117 -559 -159
-506 -366 -1368 -661 -2741 -55 -256 -103 -468 -107 -472 -14 -14 -682 -77
-1397 -132 -223 -18 -303 -21 -312 -12 -9 8 -10 22 -3 52 27 120 98 577 225
1449 239 1638 416 2503 594 2899 118 261 361 463 626 519 102 22 281 21 387
-3z m-5042 -150 c120 -13 222 -41 325 -89 63 -30 92 -51 138 -102 110 -120
277 -386 492 -779 164 -301 661 -1302 1079 -2175 209 -434 473 -981 588 -1214
114 -233 208 -430 208 -437 0 -15 1 -15 -158 -44 -479 -88 -769 -327 -907
-747 -15 -46 -32 -83 -39 -83 -23 0 -327 380 -633 790 -732 984 -1363 1974
-1747 2740 -254 509 -394 894 -427 1183 -41 354 135 664 479 840 143 74 288
111 487 125 11 1 63 -3 115 -8z m5283 -4943 c274 -77 360 -110 454 -176 247
-174 500 -589 657 -1078 228 -712 347 -1960 255 -2683 -120 -945 -589 -1719
-1385 -2288 -166 -118 -403 -256 -674 -391 -602 -301 -1067 -456 -1580 -528
-181 -25 -643 -25 -830 0 -456 62 -958 218 -1541 480 -153 69 -214 103 -388
220 -719 480 -1213 1086 -1439 1763 -154 461 -178 859 -77 1264 101 405 310
675 629 813 115 49 141 53 207 32 145 -47 480 -208 710 -340 69 -40 247 -137
395 -216 148 -78 400 -213 559 -299 160 -87 376 -202 480 -255 105 -54 207
-109 228 -123 76 -51 245 -275 342 -456 l49 -89 -12 -78 c-13 -91 -61 -220
-103 -278 -37 -52 -68 -71 -196 -121 -207 -81 -435 -117 -644 -100 -131 11
-158 15 -284 47 -503 129 -1024 513 -1493 1099 -53 67 -109 129 -124 138 -89
54 -211 -40 -178 -139 6 -18 52 -84 102 -146 541 -678 1144 -1098 1748 -1221
100 -20 144 -23 335 -23 193 0 233 3 329 24 225 48 475 152 553 230 35 35 63
52 63 37 0 -3 11 -67 25 -143 33 -174 71 -328 91 -357 31 -49 124 -62 175 -25
53 38 56 75 16 250 -179 778 -73 1408 326 1948 192 260 576 579 1035 860 213
130 556 305 737 375 79 31 121 69 130 120 10 51 -20 106 -69 130 l-39 19 -206
-51 c-707 -176 -1254 -184 -1736 -26 -222 72 -482 220 -669 380 -146 125 -296
345 -296 435 0 81 55 274 111 388 44 91 63 117 138 191 68 68 105 96 176 132
200 102 370 135 915 178 74 5 254 19 400 31 334 25 1010 86 1155 104 61 7 130
12 155 11 25 -1 152 -32 283 -69z m-4902 -653 c247 -42 552 -177 851 -377 820
-548 1405 -1316 1453 -1908 9 -110 -7 -206 -49 -296 -78 -165 -209 -232 -431
-220 -306 17 -722 176 -1340 514 -121 66 -305 167 -410 223 -385 208 -680 442
-863 685 -69 91 -147 249 -173 350 -44 167 -21 367 60 540 188 401 482 560
902 489z m2248 -1283 c335 -148 623 -202 1069 -202 144 0 240 -3 237 -9 -3 -5
-73 -54 -156 -110 -284 -190 -501 -362 -691 -548 -75 -74 -141 -131 -146 -128
-5 3 -12 35 -16 72 -25 244 -154 562 -348 858 -32 49 -58 93 -58 98 0 14 16 9
109 -31z m-99 -1744 c0 -8 -9 -39 -19 -69 -10 -30 -29 -98 -41 -152 -12 -53
-26 -99 -31 -102 -5 -3 -23 16 -41 42 -18 26 -65 90 -105 142 -40 52 -70 98
-68 102 2 4 42 10 87 14 46 3 106 12 133 20 67 18 85 19 85 3z"/>
</g>
</svg>
